<svg width="30" height="30" viewBox="0 0 30 30" fill="none" xmlns="http://www.w3.org/2000/svg">
<path d="M13.3307 0.0886844C10.2884 0.425387 7.42305 1.68862 5.12236 3.70741L10.2047 8.79043C12.282 6.37336 13.395 3.27511 13.3307 0.0886844ZM11.623 10.2087C14.0961 7.3916 15.4194 3.74757 15.3304 0C18.8505 0.0718385 22.2321 1.38489 24.8783 3.70741L15.0003 13.5854L11.623 10.2087ZM8.79043 10.2047C6.37336 12.282 3.27511 13.395 0.0886844 13.3307C0.425387 10.2884 1.68862 7.42305 3.70741 5.12236L8.79043 10.2047ZM10.2087 11.623L13.5854 15.0003L3.70741 24.8783C1.38475 22.2319 0.0716822 18.8501 0 15.3297C0.1098 15.3324 0.220044 15.3337 0.330733 15.3337C4.11349 15.3337 7.56951 13.9335 10.2087 11.623ZM26.2926 5.12169C28.6153 7.76806 29.9283 11.1499 30 14.6703C29.8893 14.668 29.7793 14.6669 29.6699 14.6669C26.0355 14.6617 22.5237 15.9806 19.7913 18.377L16.4146 15.0003L26.2926 5.12169ZM15.0003 16.414L18.377 19.7913C15.9039 22.6084 14.5806 26.2524 14.6696 30C11.1495 29.9282 7.76789 28.6151 5.12169 26.2926L15.0003 16.414ZM24.8783 26.2926L19.7953 21.2096C17.718 23.6266 16.605 26.7249 16.6693 29.9113C19.7116 29.5746 22.5776 28.3114 24.8783 26.2926ZM21.2096 19.7946L26.2926 24.8783C28.3115 22.5774 29.5747 19.7118 29.9113 16.6693C29.8313 16.668 29.7506 16.6673 29.6693 16.6673C26.5657 16.6623 23.5636 17.7721 21.2096 19.7946Z" fill="#F39200"/>
</svg>
