<svg width="27" height="27" viewBox="0 0 27 27" fill="none" xmlns="http://www.w3.org/2000/svg">
<path fill-rule="evenodd" clip-rule="evenodd" d="M16.4504 18.042C14.428 19.658 11.8636 20.4382 9.28397 20.2224C6.70431 20.0066 4.30518 18.8111 2.57933 16.8816C0.853481 14.9521 -0.0680796 12.4349 0.00392247 9.84709C0.0759246 7.25926 1.13602 4.79724 2.96649 2.96666C4.79696 1.13609 7.25885 0.0759289 9.84652 0.0039227C12.4342 -0.0680835 14.9512 0.85353 16.8806 2.57948C18.8101 4.30543 20.0054 6.70469 20.2212 9.28451C20.437 11.8643 19.6568 14.4288 18.0409 16.4514L25.7774 24.1868C25.888 24.2898 25.9766 24.4141 26.0382 24.5521C26.0997 24.6902 26.1327 24.8392 26.1354 24.9903C26.1381 25.1414 26.1103 25.2915 26.0537 25.4316C25.9971 25.5718 25.9128 25.6991 25.806 25.8059C25.6991 25.9128 25.5718 25.9971 25.4317 26.0537C25.2916 26.1103 25.1415 26.1381 24.9904 26.1354C24.8393 26.1327 24.6902 26.0997 24.5522 26.0381C24.4142 25.9766 24.2899 25.8879 24.1869 25.7774L16.4504 18.042ZM4.55764 15.6981C3.45635 14.5966 2.70628 13.1934 2.40222 11.6657C2.09816 10.1381 2.25376 8.55455 2.84936 7.11531C3.44496 5.67606 4.45382 4.44569 5.74844 3.57968C7.04306 2.71367 8.56533 2.2509 10.1229 2.24986C11.6804 2.24881 13.2033 2.70953 14.4991 3.57379C15.7949 4.43806 16.8054 5.66707 17.4029 7.10551C18.0004 8.54396 18.1582 10.1273 17.8562 11.6553C17.5542 13.1834 16.806 14.5876 15.7062 15.6906L15.6987 15.6981L15.6912 15.7041C14.2134 17.1786 12.2107 18.0061 10.1232 18.005C8.03562 18.0039 6.03388 17.1742 4.55764 15.6981Z" fill="#191919"/>
</svg>
